<svg width="70" height="26" viewBox="0 0 70 26" fill="none" xmlns="http://www.w3.org/2000/svg">
<path d="M0.25 12.3824H4.70887C4.75194 13.2658 5.07978 13.9278 5.69247 14.3685C6.34816 14.8102 7.22212 15.0305 8.31536 15.0305C9.10225 15.0305 9.77943 14.8764 10.3481 14.5671C10.8726 14.2588 11.1349 13.8389 11.1349 13.3092C11.1349 12.5147 10.2169 11.9189 8.38093 11.5217C7.59403 11.3893 7.00391 11.2569 6.6105 11.1245C4.29296 10.5514 2.74182 9.86657 1.95492 9.07215C1.07996 8.27765 0.643483 7.21843 0.643483 5.89432C0.643483 4.2175 1.27666 2.82719 2.54504 1.72339C3.85648 0.708594 5.56134 0.200684 7.6596 0.200684C9.93206 0.200684 11.7466 0.708594 13.1021 1.72339C14.3694 2.82712 15.0467 4.26193 15.1348 6.02672H12.3152C11.4843 6.02672 10.8501 5.65224 10.4136 4.90122C10.2384 4.72534 10.0633 4.54844 9.88907 4.37161C9.36452 3.9744 8.6432 3.77579 7.72524 3.77579C6.85027 3.77579 6.19459 3.9082 5.75811 4.173C5.3647 4.43781 5.168 4.83502 5.168 5.36471C5.168 6.07122 6.30423 6.66704 8.5777 7.15222C8.83998 7.24115 9.06957 7.30735 9.26614 7.35083C9.46299 7.39533 9.64837 7.41703 9.82358 7.41703C12.053 7.99114 13.6042 8.65316 14.4792 9.40315C15.309 10.1976 15.725 11.2569 15.725 12.581C15.725 14.5236 15.0253 16.0236 13.6268 17.0829C12.3153 18.0542 10.3482 18.5394 7.72531 18.5394C5.23357 18.5394 3.37507 18.0325 2.1517 17.0167C0.88318 16.0019 0.25 14.5236 0.25 12.581V12.3824Z" fill="white"/>
<path d="M28.9127 12.7796H32.1912C31.7097 14.6333 30.7917 16.0463 29.4372 17.0167C28.0818 18.0325 26.3768 18.5394 24.3226 18.5394C21.8309 18.5394 19.8853 17.7232 18.4868 16.0898C17.0872 14.5009 16.3885 12.2282 16.3885 9.27075C16.3885 6.44666 17.0657 4.2392 18.4212 2.65029C19.8197 1.0179 21.7653 0.200684 24.2571 0.200684C26.88 0.200684 28.9127 0.995177 30.3552 2.58409C31.7537 4.2175 32.4535 6.49013 32.4535 9.40315C32.4535 9.58006 32.4535 9.73416 32.4535 9.86657C32.4535 9.99897 32.4535 10.0879 32.4535 10.1314C32.4535 10.3527 32.431 10.5069 32.3879 10.5948H21.0441C21.0871 11.9634 21.415 12.9782 22.0277 13.6402C22.5953 14.3467 23.4477 14.6995 24.585 14.6995C25.3278 14.6995 25.962 14.5454 26.4865 14.2361C26.6177 14.1926 26.7375 14.1151 26.8471 14.0044C26.9558 13.8947 27.0767 13.7727 27.2078 13.6402C27.2509 13.5078 27.4147 13.3319 27.6997 13.1106C27.9833 12.8903 28.3881 12.7796 28.9127 12.7796ZM21.0441 7.61564H27.7323C27.6443 6.42393 27.3389 5.54153 26.8143 4.96742C26.2457 4.34983 25.4373 4.04053 24.3881 4.04053C23.4261 4.04053 22.6392 4.34983 22.0275 4.96742C21.415 5.58596 21.0871 6.46836 21.0441 7.61564Z" fill="white"/>
<path d="M33.5105 18.2081V9.66772C33.5105 7.94641 33.7615 6.50133 34.2645 5.33126C34.7666 4.16242 35.4551 3.22417 36.3301 2.51758C37.16 1.85556 38.1334 1.37037 39.248 1.06107C40.3628 0.752782 41.5105 0.597656 42.6905 0.597656C42.7775 0.597656 42.8872 0.597656 43.0185 0.597656C43.1495 0.597656 43.2582 0.597656 43.3465 0.597656V5.29819H41.838C40.5696 5.29819 39.6303 5.6075 39.0186 6.22509C38.4059 6.8437 38.1005 7.814 38.1005 9.13811V18.2082H33.5105V18.2081Z" fill="white"/>
<path d="M44.9893 0.597656H47.3499C47.9614 0.597656 48.4861 0.818984 48.9236 1.25967C49.3601 1.70138 49.5793 2.23099 49.5793 2.84858V18.2081H44.9893V0.597656Z" fill="white"/>
<path d="M53.2421 18.3099C54.6858 18.3099 55.8562 17.1282 55.8562 15.6706C55.8562 14.2129 54.6858 13.0312 53.2421 13.0312C51.7984 13.0312 50.628 14.2129 50.628 15.6706C50.628 17.1282 51.7984 18.3099 53.2421 18.3099Z" fill="white"/>
<path d="M65.7311 2.58402C64.2888 0.995104 62.256 0.200684 59.6331 0.200684C57.1414 0.200684 55.1958 1.0179 53.7974 2.65029C52.4418 4.2392 51.7646 6.44673 51.7646 9.27075C51.7646 10.4494 51.8774 11.5174 52.0995 12.4786C52.5181 12.2892 52.9808 12.1814 53.4692 12.1814C55.3222 12.1814 56.8244 13.6981 56.8244 15.5691C56.8244 16.4088 56.5201 17.1756 56.019 17.7675C57.0734 18.2821 58.3 18.5395 59.6986 18.5395C61.753 18.5395 63.4578 18.0326 64.8134 17.0168C66.1677 16.0465 67.0857 14.6334 67.5672 12.7797H64.2889C63.7643 12.7797 63.3596 12.8904 63.0757 13.1107C62.7908 13.332 62.6268 13.5079 62.5838 13.6403C62.4529 13.7727 62.3319 13.8948 62.2232 14.0045C62.1136 14.1152 61.9937 14.1927 61.8626 14.2362C61.3381 14.5455 60.7039 14.6996 59.9609 14.6996C58.8237 14.6996 57.9713 14.3468 57.4037 13.6403C56.791 12.9783 56.4631 11.9635 56.4203 10.5949H67.7641C67.8071 10.507 67.8295 10.3528 67.8295 10.1314C67.8295 10.088 67.8295 9.99904 67.8295 9.86664C67.8295 9.73424 67.8295 9.58006 67.8295 9.40323C67.8295 6.49013 67.1298 4.21743 65.7311 2.58402ZM56.4202 7.61564C56.4631 6.46843 56.791 5.58603 57.4037 4.96742C58.0152 4.34983 58.8021 4.04053 59.7643 4.04053C60.8134 4.04053 61.6218 4.34983 62.1905 4.96742C62.7151 5.54153 63.0202 6.42393 63.1083 7.61564H56.4202Z" fill="white"/>
<path d="M54.1723 20.4597V22.9184C54.1723 23.9364 53.646 24.4422 52.5997 24.4358C51.5596 24.4167 51.0398 23.8468 51.0398 22.7199C51.0398 21.5675 51.4836 20.9784 52.3778 20.9464C52.7963 20.9464 53.1196 21.1192 53.3353 21.4714V20.0308H53.7538C53.9822 20.0308 54.1723 20.2294 54.1723 20.4597ZM51.9085 22.6815C51.9021 23.3666 52.1304 23.7124 52.6124 23.7124C53.0944 23.7124 53.3354 23.3666 53.3354 22.6815C53.3163 22.0285 53.0818 21.7083 52.6251 21.7083C52.1686 21.7084 51.9338 22.0285 51.9085 22.6815Z" fill="white"/>
<path d="M56.1131 24.4614C55.0984 24.4293 54.5911 23.834 54.5911 22.6814C54.5911 21.5289 55.1048 20.9526 56.1258 20.9463C57.1911 20.9463 57.6921 21.6058 57.6287 22.9312H55.4599C55.4916 23.4497 55.7135 23.7123 56.1258 23.7123C56.3224 23.7123 56.5064 23.629 56.6712 23.4689C56.7471 23.3857 56.8423 23.3473 56.9565 23.3473H57.5779C57.3939 24.0643 56.9374 24.4614 56.1131 24.4614ZM55.4724 22.3228H56.7344C56.6838 21.8746 56.4746 21.6441 56.113 21.6441C55.7516 21.6441 55.5359 21.8746 55.4724 22.3228Z" fill="white"/>
<path d="M59.5503 23.7699C59.9053 23.7699 60.0829 23.6675 60.0829 23.4497C60.0829 23.2769 59.7913 23.136 59.2141 23.0336C58.4723 22.8991 58.0917 22.5662 58.0853 22.0348C58.0853 21.3048 58.656 20.959 59.4234 20.9463C59.8547 20.9463 60.1971 21.0423 60.4507 21.2344C60.6979 21.4329 60.8313 21.7082 60.8501 22.0604H60.3176C60.121 22.0539 59.9941 21.9835 59.9434 21.8491C59.8862 21.7019 59.7151 21.6186 59.4359 21.6186C59.1062 21.6186 58.9413 21.7082 58.9413 21.8811C58.9413 22.054 59.157 22.1884 59.5946 22.2716C60.1653 22.3869 60.5395 22.5342 60.7234 22.7071C60.8818 22.8736 60.958 23.0784 60.958 23.3089C60.958 24.1412 60.3112 24.4486 59.4233 24.4486C58.954 24.4486 58.599 24.3462 58.3706 24.1476C58.117 23.9557 57.9902 23.661 57.9902 23.2705H58.8525C58.8718 23.6418 59.138 23.7699 59.5503 23.7699Z" fill="white"/>
<path d="M61.827 20.0308C62.1062 20.0308 62.2393 20.1715 62.2329 20.4469V20.6966H61.3895V20.0308H61.827ZM61.827 20.9975C62.0997 20.9975 62.2329 21.132 62.2329 21.4073V24.3846H61.3895V20.9976H61.827V20.9975Z" fill="white"/>
<path d="M62.7215 22.6945C62.7215 21.5676 63.2414 21.0041 64.2814 20.9849C65.3277 20.9785 65.8541 21.4779 65.8541 22.496V24.5C65.8541 25.3516 65.3215 25.7805 64.2497 25.7998C63.4888 25.7998 63.0069 25.4412 62.8102 24.724H63.7424C63.7994 24.9674 63.996 25.0826 64.3448 25.0826C64.7887 25.0826 65.017 24.8202 65.017 24.2951C65.017 24.2951 65.017 24.3016 65.017 23.9494C64.8013 24.2823 64.478 24.4489 64.0595 24.4489C63.1653 24.4489 62.7215 23.8598 62.7215 22.6945ZM65.0171 22.7201C65.0233 22.035 64.7887 21.6957 64.3068 21.6957C63.8248 21.6957 63.5903 22.0351 63.5903 22.7201C63.6095 23.3731 63.8375 23.6997 64.2942 23.6997C64.7509 23.6997 64.9918 23.3731 65.0171 22.7201Z" fill="white"/>
<path d="M68.7397 24.3846C68.4605 24.3654 68.3211 24.2309 68.3211 23.962V22.2204C68.302 21.8684 68.1117 21.6954 67.7375 21.6954C67.3634 21.6954 67.1732 21.8684 67.1668 22.2204V24.3846H66.3107V22.3933C66.3107 21.4265 66.7927 20.9463 67.7502 20.9463C68.7079 20.9463 69.1773 21.4265 69.1708 22.3933V24.3846H68.7397Z" fill="white"/>
</svg>
