<svg width="1370" height="571" viewBox="0 0 1370 571" fill="none" xmlns="http://www.w3.org/2000/svg">
<g clip-path="url(#clip0_1_4)">
<rect width="1370" height="571" fill="#141414"/>
<g opacity="0.05">
<path d="M8.40611 481.13C6.86585 480.333 5.9474 478.862 5.65071 476.716C5.59364 476.303 5.57917 475.59 5.60734 474.576C5.84284 472.02 6.63774 469.555 7.99201 467.18C9.41743 464.712 11.1532 462.663 13.1995 461.034C14.7961 459.804 16.4611 459.069 18.1946 458.829C20.0107 458.578 21.4996 459.003 22.6613 460.105C23.5412 460.993 24.0781 462.138 24.2721 463.542C24.4433 464.78 24.2886 466.4 23.8082 468.401C23.3022 470.826 22.3137 473.108 20.8426 475.246C19.4541 477.373 17.7552 479.08 15.7459 480.368C14.1265 481.433 12.6393 481.933 11.2842 481.868C10.0232 481.874 9.06382 481.628 8.40611 481.13ZM28.8075 551.12C28.8873 551.698 28.8548 552.376 28.7099 553.153C28.6475 553.919 28.5978 554.472 28.5609 554.814L28.416 555.591C28.0127 558.76 26.9262 561.854 25.1566 564.875C23.3869 567.896 20.8923 569.629 17.6729 570.074C17.3427 570.119 17.0894 570.112 16.9129 570.053C15.5693 570.07 14.4277 569.723 13.4881 569.012C12.0445 567.697 11.1058 565.471 10.6722 562.334C10.5125 561.179 10.4124 559.847 10.3721 558.338C10.2553 558.102 10.2211 557.854 10.2694 557.595C10.2238 557.265 10.1953 557.058 10.1838 556.976C9.62129 551.081 9.38688 542.995 9.48057 532.719L9.44523 528.812C9.49476 523.084 9.44935 518.8 9.309 515.959L9.03404 510.319C8.95417 509.741 8.93266 509.281 8.96955 508.94C8.97489 507.761 8.91349 507.013 8.78529 506.694C8.69132 506.623 8.63865 506.546 8.62724 506.463C8.60441 506.298 8.54603 506.18 8.45207 506.109C7.86549 505.517 7.498 504.684 7.34965 503.611C7.16706 502.29 7.10832 500.953 7.17338 499.598C7.22169 499.339 7.20591 498.92 7.12605 498.342C7.17897 494.465 8.3379 490.982 10.6029 487.893C12.9504 484.792 15.3211 483.076 17.715 482.745C18.623 482.62 19.5183 482.706 20.4009 483.005C22.6129 483.793 23.9586 485.92 24.4379 489.387C24.5923 491.721 24.7494 493.466 24.9091 494.622L25.2303 497.859L25.8003 504.72C26.3111 509.024 26.6683 513.433 26.8718 517.948C27.0175 519.61 27.2753 525.127 27.6453 534.498L27.8045 538.388L27.8992 540.899L28.0977 547.812C28.0608 548.153 28.0594 548.448 28.0937 548.695C28.199 548.849 28.2688 549.05 28.3031 549.297C28.5252 549.687 28.6121 550.012 28.5638 550.271L28.8075 551.12Z" fill="white"/>
<path d="M60.874 460.248C61.9753 459.087 63.2517 458.279 64.7034 457.826L65.0748 457.775C66.3956 457.592 67.3422 458.05 67.9147 459.149C68.5356 459.989 69.0369 461.181 69.4188 462.727C69.698 463.529 69.8604 464.096 69.9061 464.426C71.6209 468.311 73.1435 471.718 74.4737 474.647C75.8751 477.482 77.0486 479.885 77.9943 481.858C78.9628 483.995 80.4625 487.237 82.4934 491.583C84.513 495.847 86.2577 499.644 87.7275 502.974C88.2061 504.001 88.5094 504.674 88.6376 504.993C88.3181 502.682 87.7563 499.226 86.9521 494.626L86.1094 489.443L85.5406 486.241C84.9901 482.867 84.4371 480.084 83.8813 477.889C83.4081 475.683 82.7343 473.547 81.8597 471.481C81.563 469.334 81.6308 467.39 82.0629 465.648L83.1038 462.223C83.7722 460.364 84.8946 458.442 86.471 456.458C87.632 455.119 88.9796 454.218 90.5138 453.754C91.9171 453.56 93.0758 454.03 93.9899 455.166C95.6732 458.214 96.8598 461.625 97.5498 465.4C97.8694 467.711 98.1446 469.398 98.3755 470.459C98.9688 474.752 99.4495 477.924 99.8173 479.977C100.445 484.517 101.292 491.256 102.36 500.194C102.987 504.734 103.67 511.496 104.407 520.48L104.642 523.097C104.685 524.016 104.778 525.602 104.921 527.854C105.147 530.094 105.256 532.098 105.248 533.866C105.269 539.499 104.966 544 104.338 547.367C103.761 549.887 103.192 551.858 102.632 553.282C102.023 554.964 100.854 556.85 99.1237 558.94C97.8915 560.373 96.6151 561.18 95.2943 561.363C94.799 561.431 94.2866 561.376 93.757 561.197C92.345 560.719 90.991 559.139 89.6949 556.458C88.6325 554.249 87.513 551.628 86.3364 548.594C85.5216 546.351 84.9518 544.663 84.6269 543.53C83.0799 539.033 81.9858 535.988 81.3449 534.394C79.7978 529.896 77.3235 523.256 73.9221 514.472C73.5258 531.689 71.2444 546.222 67.0777 558.07C66.671 559.389 66.0052 560.658 65.0805 561.88C64.2383 563.09 63.3148 564.017 62.3102 564.66C61.778 565.07 61.1404 565.327 60.3975 565.43C59.7371 565.521 59.2304 565.507 58.8773 565.387C57.7015 564.793 56.9881 563.587 56.737 561.771C56.6343 561.028 56.6014 560.486 56.6383 560.144C56.7658 558.024 57.1751 556.116 57.8664 554.422L58.0455 553.893C59.0635 550.303 59.8708 546.406 60.4673 542.201C61.0235 536.488 61.268 530.649 61.2008 524.686C61.1335 518.722 60.8696 511.944 60.409 504.353C60.0035 500.202 59.6696 497.178 59.4071 495.279L58.3932 488.858C58.1878 487.372 57.9868 486.222 57.7901 485.408C57.7102 484.83 57.572 484.134 57.3753 483.32C57.2498 482.412 57.1484 481.374 57.0712 480.207C56.6832 477.401 56.4221 475.207 56.2878 473.627C56.2247 471.954 56.3793 470.334 56.7518 468.768C57.6047 465.201 58.9788 462.361 60.874 460.248Z" fill="white"/>
<path d="M15.6731 343.914C15.6688 344.856 15.7853 346.186 16.0227 347.903C16.2966 349.884 16.8029 352.574 17.5418 355.971C18.3172 359.633 18.8327 362.388 19.0883 364.237C19.9215 363.449 21.5677 362.212 24.0266 360.526C29.1722 356.854 33.1473 353.478 35.952 350.398C38.7567 347.318 39.9308 344.127 39.4744 340.825C39.3831 340.165 39.244 339.646 39.0572 339.268C38.1272 336.435 36.3843 334.051 33.8286 332.116C31.2729 330.181 28.8654 328.832 26.6061 328.067C24.3286 327.171 20.5729 325.805 15.3392 323.971C15.3093 330.571 15.4206 337.218 15.6731 343.914ZM73.0324 363.039C74.0525 362.629 74.7607 362.397 75.1569 362.342C78.723 361.849 81.0446 365.499 82.1219 373.291C82.6879 377.386 82.8963 381.327 82.7471 385.117C82.73 388.888 82.7488 390.972 82.8036 391.368C82.8102 398.232 82.3771 404.349 81.5043 409.719C80.6314 415.089 78.9113 420.172 76.3439 424.969C72.9026 431.233 69.1347 434.648 65.0403 435.214C61.6063 435.688 57.3132 434.33 52.161 431.139L30.5273 417.775L20.5713 411.479C20.3126 414.476 19.3984 418.573 17.8286 423.771C16.3727 428.818 14.3905 433.466 11.8822 437.716C9.35567 441.834 6.44146 444.122 3.13952 444.578C2.34707 444.688 1.3951 444.617 0.283712 444.367C-2.50389 443.676 -4.32676 440.226 -5.18489 434.019C-5.98823 428.207 -6.00184 420.806 -5.22572 411.815L-5.08415 405.536C-5.13465 404.197 -5.12879 400.832 -5.06666 395.439C-5.00453 390.046 -5.0857 385.077 -5.31025 380.532C-5.5348 375.986 -5.91181 371.799 -6.44129 367.968C-7.02555 363.742 -7.59584 360.59 -8.15211 358.514C-9.28294 354.228 -10.1743 351.188 -10.8261 349.394C-13.3154 341.124 -14.8795 334.677 -15.5186 330.054C-16.2672 324.639 -16.132 319.775 -15.113 315.461C-13.4392 308.096 -10.3119 302.482 -5.73112 298.618C-1.03654 294.604 4.48058 292.159 10.8203 291.282C18.3487 290.242 26.217 291.173 34.4253 294.076C42.6152 296.848 49.2068 300.715 54.2002 305.678C58.5556 309.921 61.1624 315.147 62.0205 321.354C62.9152 327.826 61.8469 334.704 58.8158 341.988C55.9167 349.253 51.8971 356.202 46.7569 362.835C41.7489 369.45 36.3967 375.036 30.7003 379.592C36.3807 382.71 41.8814 385.988 47.2022 389.425C53.3702 393.149 57.9871 395.875 61.0528 397.605C58.588 379.775 62.5812 368.253 73.0324 363.039Z" fill="white"/>
<path d="M135.115 264.813C136.877 262.954 138.919 261.662 141.242 260.937L141.836 260.855C143.95 260.563 145.464 261.296 146.38 263.054C147.374 264.397 148.176 266.305 148.787 268.778C149.233 270.062 149.493 270.968 149.566 271.497C152.31 277.713 154.746 283.164 156.875 287.85C159.117 292.386 160.994 296.232 162.507 299.387C164.057 302.807 166.457 307.994 169.706 314.948C172.937 321.77 175.729 327.845 178.081 333.173C178.846 334.817 179.332 335.894 179.537 336.404C179.026 332.706 178.127 327.177 176.84 319.817L175.492 311.524L174.582 306.4C173.701 301.003 172.816 296.549 171.927 293.038C171.17 289.508 170.091 286.09 168.692 282.784C168.217 279.35 168.326 276.239 169.017 273.452L170.683 267.972C171.752 264.998 173.548 261.923 176.07 258.747C177.928 256.606 180.084 255.164 182.539 254.421C184.784 254.11 186.638 254.864 188.1 256.681C190.794 261.558 192.692 267.016 193.796 273.055C194.308 276.753 194.748 279.451 195.117 281.15C196.067 288.018 196.836 293.094 197.424 296.378C198.428 303.642 199.784 314.425 201.492 328.725C202.496 335.99 203.588 346.809 204.768 361.183L205.145 365.37C205.213 366.842 205.362 369.378 205.591 372.981C205.952 376.565 206.126 379.772 206.113 382.6C206.148 391.614 205.662 398.815 204.657 404.203C203.734 408.234 202.824 411.388 201.928 413.666C200.954 416.358 199.083 419.376 196.314 422.72C194.343 425.011 192.301 426.303 190.187 426.595C189.395 426.705 188.575 426.616 187.728 426.33C185.469 425.565 183.302 423.038 181.229 418.748C179.529 415.214 177.737 411.02 175.855 406.166C174.551 402.577 173.639 399.876 173.12 398.064C170.644 390.868 168.894 385.995 167.868 383.445C165.393 376.25 161.434 365.625 155.992 351.571C155.358 379.117 151.708 402.37 145.041 421.328C144.39 423.437 143.325 425.469 141.845 427.423C140.498 429.359 139.02 430.842 137.413 431.872C136.561 432.528 135.541 432.938 134.353 433.102C133.296 433.248 132.485 433.226 131.92 433.035C130.039 432.083 128.898 430.155 128.496 427.249C128.332 426.061 128.279 425.193 128.338 424.646C128.542 421.253 129.197 418.201 130.303 415.491L130.589 414.644C132.218 408.9 133.51 402.664 134.464 395.937C135.354 386.796 135.745 377.454 135.638 367.912C135.53 358.37 135.108 347.526 134.371 335.379C133.722 328.739 133.188 323.9 132.768 320.862L131.146 310.587C130.817 308.21 130.495 306.37 130.181 305.068C130.053 304.143 129.832 303.029 129.517 301.727C129.316 300.274 129.154 298.614 129.031 296.747C128.41 292.256 127.992 288.747 127.777 286.219C127.676 283.541 127.924 280.949 128.519 278.444C129.884 272.737 132.083 268.193 135.115 264.813Z" fill="white"/>
<path d="M326.6 435.071C328.43 434.345 330.345 434.022 332.343 434.102C337.14 434.296 340.82 437.346 343.384 443.255C346.147 449.171 347.392 455.526 347.118 462.321C346.973 465.918 346.349 468.995 345.245 471.553C341.933 479.225 336.75 486.122 329.698 492.243C322.646 498.363 314.19 504.528 304.332 510.735C294.69 516.552 283.369 521.8 270.37 526.479C257.579 530.968 245.787 532.994 234.996 532.559C218.809 531.906 208.276 525.076 203.396 512.069C200.489 504.745 199.257 495.588 199.701 484.597C200.257 470.808 203.027 456.709 208.012 442.298C213.205 427.695 220.105 410.459 228.713 390.59C237.305 371.121 247.355 352.711 258.863 335.36C270.38 317.81 282.633 309.297 295.622 309.821C299.02 309.958 302.089 310.783 304.83 312.294C307.641 297.195 313.188 286.21 321.472 279.338C326.637 275.343 331.018 273.418 334.615 273.563C338.812 273.733 341.909 276.359 343.905 281.444C345.159 285.098 345.673 289.722 345.448 295.318C345.335 298.115 344.982 301.904 344.389 306.684L343.726 315.665C342.738 330.237 341.25 344.789 339.263 359.32C337.532 372.461 334.127 384.934 329.047 396.739C323.967 408.544 316.411 414.744 306.378 415.34C301.358 415.738 297.366 412.975 294.403 407.051C291.639 401.135 288.784 392.513 285.838 381.185C283.93 373.902 282.25 368.43 280.796 364.768C279.55 360.915 278.064 358.053 276.338 356.182C264.134 375.906 254.85 397.649 248.487 421.412L246.746 427.347C244.857 434.476 243.316 440.419 242.124 445.175C241.139 449.739 240.554 454.319 240.369 458.915C239.958 469.107 242.273 476.206 247.316 480.213C250.792 483.355 255.828 485.06 262.422 485.326C266.819 485.503 271.643 484.997 276.895 483.808C282.139 482.818 287.711 481.142 293.611 478.777C295.442 478.051 298.196 476.761 301.874 474.907C303.481 474.772 304.304 474.205 304.345 473.205C304.377 472.406 303.91 471.587 302.943 470.747C303.415 468.965 303.915 466.483 304.444 463.301C304.964 460.32 305.565 457.842 306.245 455.868C306.925 453.894 308.009 451.836 309.496 449.694C314.999 442.31 320.7 437.436 326.6 435.071Z" fill="white"/>
<path d="M545.508 390.458C548.506 390.579 550.86 391.775 552.57 394.045C554.479 396.324 555.354 399.462 555.192 403.459C555.112 405.457 554.607 408.039 553.679 411.204C552.486 415.96 550.406 420.38 547.439 424.463C544.481 428.347 541.054 431.412 537.161 433.657C534.706 434.959 532.268 435.861 529.846 436.364C527.431 436.667 524.418 436.946 520.805 437.2L518.694 437.415L517.795 437.379L517.775 460.197C519.39 459.862 520.497 459.706 521.097 459.73C522.096 459.771 523.187 460.015 524.37 460.463C527.743 461.199 530.068 463.095 531.346 466.149C532.457 468.395 532.947 471.117 532.818 474.315C532.746 476.113 532.453 478.403 531.941 481.185C531.717 481.776 531.585 482.572 531.544 483.571C530.455 490.733 528.794 497.171 526.562 502.886C524.53 508.608 521.514 513.891 517.516 518.734C508.288 529.17 499.677 534.228 491.683 533.905C490.284 533.849 489.189 533.704 488.398 533.472C483.842 532.288 480.741 529.761 479.096 525.891C477.651 522.03 476.725 517.689 476.319 512.869C475.212 500.614 474.969 486.793 475.589 471.406L476.844 447.737L476.941 445.339L477.434 440.555L465.659 442.182C459.607 443.339 454.151 444.62 449.291 446.025L446.844 447.127C443.809 462.818 441.823 474.848 440.885 483.217C440.356 486.398 439.963 491.186 439.705 497.581C439.873 498.388 439.916 499.791 439.836 501.789C439.763 503.588 439.607 504.983 439.367 505.974C439.213 509.771 437.969 513.323 435.634 516.632C433.507 519.749 430.712 522.038 427.25 523.5C424.604 524.594 421.782 525.081 418.785 524.96C413.389 524.742 408.865 522.758 405.214 519.008C400.986 514.634 399.014 508.95 399.296 501.956L399.777 497.471C400.796 487.104 402.31 476.857 404.32 466.729C406.537 456.41 409.435 444.117 413.013 429.85C415.927 417.157 418.013 407.633 419.27 401.279C422.753 384.405 425.376 368.999 427.139 355.058C428.293 346.298 429.119 338.225 429.617 330.839L429.665 329.64C430.035 325.451 430.575 321.97 431.288 319.197C432.2 316.431 433.903 313.898 436.398 311.596C439.932 308.336 444.198 306.807 449.193 307.008C454.389 307.218 458.617 309.09 461.877 312.624C465.138 316.158 466.643 321.023 466.393 327.218C466.264 330.415 466.071 332.709 465.815 334.1L465.455 335.587L462.762 357.696C461.687 369.463 460.264 379.914 458.495 389.05C457.934 393.03 456.925 398.194 455.468 404.54C458.306 403.654 463.058 402.445 469.726 400.912L471.548 400.385C474.57 399.906 477.196 399.312 479.427 398.601C479.999 384.413 480.326 373.817 480.408 366.815L480.433 366.215C481.15 348.43 481.886 335.149 482.64 326.372C483.788 312.807 489.295 302.821 499.161 296.414C502.655 294.152 506.201 293.095 509.798 293.24C512.995 293.369 515.648 294.577 517.758 296.863C520.035 299.958 521.077 303.903 520.884 308.699C520.803 310.697 520.498 313.287 519.97 316.468C519.738 317.26 519.593 318.355 519.537 319.754C519.248 321.944 519.007 325.437 518.814 330.233C518.669 333.83 518.643 339.434 518.736 347.044L518.698 355.449L518.502 367.751L518.385 392.967L541.587 390.9L543.698 390.685L545.508 390.458Z" fill="white"/>
<path d="M677.828 432.425C680.977 433.753 684.505 435.597 688.413 437.956C683.289 416.132 679.434 397.561 676.849 382.245C668.427 397.518 657.37 416.087 643.677 437.953C642.589 440.111 640.766 443.14 638.206 447.04C646.7 434.972 656.042 429.144 666.234 429.555C670.231 429.716 674.095 430.673 677.828 432.425ZM727.506 391.794C734.578 419.902 743.227 446.172 753.45 470.604L756.482 477.331C759.086 482.24 761.019 486.422 762.281 489.875C763.551 493.129 764.117 496.455 763.98 499.852C763.771 505.048 761.355 510.355 756.733 515.773C752.119 520.991 747.161 524.794 741.861 527.183C738.591 528.852 735.157 529.614 731.56 529.469C725.565 529.227 719.642 527.187 713.792 523.348C708.15 519.318 701.374 513.64 693.462 506.315C687.861 501.285 683.601 497.711 680.684 495.591C678.742 494.112 674.634 491.744 668.36 488.489C657.395 482.442 648.904 477.095 642.886 472.449C637.068 467.811 634.28 462.494 634.522 456.499C634.587 454.9 635.383 452.531 636.911 449.39C632.84 456.031 627.125 466.209 619.766 479.923C610.688 496.571 605.509 505.87 604.229 507.82C601.654 512.12 597.56 516.858 591.946 522.036C586.341 527.015 581.24 529.411 576.644 529.225C574.246 529.129 572.184 528.145 570.458 526.274C569.116 524.818 568.505 522.592 568.626 519.594C568.964 511.201 575.96 496.571 589.612 475.705C590.476 474.138 591.867 471.892 593.787 468.967L600.889 456.644C615.51 431.613 626.18 412.727 632.898 399.988C636.802 392.539 642.457 381.358 649.864 366.444L661.635 342.599C666.41 333.384 671.121 325.768 675.767 319.75C680.422 313.533 686.115 308.858 692.846 305.727C696.316 304.066 699.55 303.295 702.547 303.416C706.544 303.577 709.365 305.593 711.01 309.462C712.664 313.132 714.045 318.592 715.154 325.843C717.92 346.571 722.038 368.555 727.506 391.794Z" fill="white"/>
<path d="M911.405 304.034C916.849 303.053 921.869 302.655 926.466 302.84C943.851 303.542 956.539 311.56 964.527 326.894C972.524 342.029 976.042 361.486 975.083 385.267C974.084 410.047 968.655 435.449 958.799 461.472C949.15 487.305 936.381 508.607 920.492 525.38C904.803 542.162 887.766 550.182 869.38 549.44C860.787 549.093 852.475 546.757 844.443 542.429C834.652 537.03 827.501 528.235 822.989 516.043C818.676 503.859 816.859 489.374 817.536 472.588C818.455 449.807 823.427 425.788 832.452 400.531C841.685 375.082 853.371 353.336 867.51 335.291C881.649 317.246 896.28 306.827 911.405 304.034ZM904.051 352.377C893.651 352.158 883.941 357.171 874.921 367.415C866.109 377.468 858.886 390.288 853.254 405.873C847.829 421.267 844.814 436.458 844.209 451.446C843.597 466.634 845.795 479.132 850.804 488.942C855.82 498.552 863.724 503.575 874.516 504.01C878.912 504.187 883.337 503.665 887.79 502.444C897.103 499.817 905.87 493.365 914.091 483.088C922.512 472.819 929.306 460.683 934.475 446.68C939.652 432.477 942.51 418.681 943.05 405.292C943.679 389.705 940.785 377.078 934.37 367.411C928.162 357.553 918.056 352.542 904.051 352.377Z" fill="white"/>
<path d="M1172.54 496.815C1173.49 498.055 1175.68 500.745 1179.12 504.887C1182.75 509.037 1185.58 513.255 1187.61 517.54C1189.85 521.633 1190.89 525.578 1190.74 529.375C1190.54 534.172 1188.56 538.595 1184.8 542.647C1180.18 547.865 1174.68 550.345 1168.28 550.087C1165.49 549.974 1162.41 549.45 1159.04 548.513C1155.68 547.577 1153.5 546.989 1152.51 546.749C1136.85 542.915 1118.53 540.574 1097.54 539.728C1081.36 539.075 1064.14 539.181 1045.89 540.046C1044.28 540.182 1041.98 540.289 1038.97 540.368C1035.97 540.447 1033.26 540.438 1030.87 540.341C1023.67 540.051 1017.92 538.718 1013.61 536.342C1009.51 533.775 1007.59 529.394 1007.84 523.199C1007.98 519.602 1008.84 515.833 1010.4 511.893C1011.96 507.753 1014.26 502.841 1017.3 497.159L1020.25 490.973C1023.54 483.7 1027.07 478.237 1030.82 474.586C1034.57 470.734 1039.75 468.941 1046.35 469.207C1051.74 469.425 1055.87 471.393 1058.72 475.111C1061.78 478.637 1063.2 482.998 1062.99 488.194C1062.85 491.791 1061.8 495.351 1059.86 498.876C1072.48 498.584 1086.79 498.761 1102.77 499.406C1112.17 499.785 1119.26 500.171 1124.04 500.564C1106.59 476.641 1093.61 458.603 1085.09 446.45L1065.46 419.537C1062.43 415.411 1059.85 412.205 1057.74 409.918C1050.7 401.027 1045.4 393.507 1041.84 387.359C1038.29 381.011 1036.65 374.639 1036.91 368.245C1037.15 362.25 1039.44 357.538 1043.78 354.11C1048.33 350.491 1053.54 347.899 1059.41 346.334C1065.48 344.577 1073.05 342.981 1082.12 341.545L1094.82 339.355C1110.77 335.995 1127.2 333.055 1144.11 330.535C1145.52 330.391 1148.34 330.005 1152.57 329.375C1159.43 327.85 1165.47 327.193 1170.66 327.402C1177.26 327.668 1182.18 329.668 1185.43 333.402C1188.88 337.344 1190.52 341.314 1190.36 345.31C1190.2 349.107 1188.85 352.856 1186.3 356.556C1183.95 360.264 1180.15 365.115 1174.9 371.109C1168.62 378.061 1164.61 383.204 1162.87 386.536C1160.05 392.027 1157.06 396.61 1153.91 400.286C1150.96 403.97 1147.69 405.74 1144.09 405.595C1141.49 405.49 1138.93 404.386 1136.42 402.283C1133.71 399.972 1132.43 396.918 1132.58 393.121C1132.69 390.323 1133.41 387.45 1134.73 384.5C1136.26 381.36 1137.67 378.514 1138.98 375.965C1140.48 373.423 1141.45 371.861 1141.87 371.277C1131.61 372.665 1116.38 375.553 1096.18 379.943C1093.75 380.646 1088.8 381.747 1081.34 383.248L1115.64 426.065C1145 462.278 1163.97 485.861 1172.54 496.815Z" fill="white"/>
<path d="M375.838 225.041C374.307 224.226 373.407 222.743 373.137 220.593C373.085 220.18 373.079 219.467 373.12 218.454C373.387 215.9 374.212 213.445 375.595 211.087C377.051 208.637 378.812 206.61 380.878 205.006C382.489 203.795 384.163 203.081 385.9 202.863C387.719 202.634 389.202 203.078 390.35 204.193C391.219 205.092 391.742 206.244 391.919 207.649C392.075 208.89 391.9 210.507 391.395 212.503C390.859 214.922 389.843 217.191 388.346 219.311C386.931 221.421 385.211 223.107 383.186 224.369C381.554 225.414 380.061 225.896 378.707 225.814C377.445 225.805 376.489 225.547 375.838 225.041ZM395.377 295.277C395.449 295.856 395.408 296.533 395.254 297.309C395.182 298.074 395.126 298.627 395.085 298.968L394.93 299.743C394.488 302.906 393.363 305.987 391.557 308.986C389.75 311.985 387.234 313.687 384.01 314.092C383.679 314.134 383.426 314.124 383.25 314.062C381.906 314.063 380.769 313.702 379.838 312.979C378.411 311.647 377.5 309.409 377.105 306.268C376.959 305.11 376.876 303.777 376.854 302.268C376.74 302.03 376.709 301.782 376.76 301.523C376.719 301.193 376.693 300.986 376.682 300.903C376.192 295.002 376.057 286.914 376.277 276.639L376.29 272.732C376.41 267.006 376.417 262.721 376.312 259.879L376.107 254.236C376.034 253.657 376.018 253.197 376.059 252.856C376.079 251.677 376.027 250.928 375.902 250.608C375.809 250.535 375.758 250.458 375.747 250.375C375.726 250.21 375.669 250.091 375.576 250.019C374.997 249.42 374.64 248.583 374.505 247.508C374.338 246.185 374.296 244.846 374.378 243.492C374.429 243.234 374.419 242.815 374.346 242.237C374.447 238.36 375.648 234.892 377.951 231.831C380.337 228.759 382.728 227.072 385.126 226.771C386.035 226.657 386.93 226.754 387.808 227.064C390.011 227.879 391.33 230.023 391.767 233.495C391.892 235.831 392.028 237.578 392.173 238.735L392.455 241.976L392.94 248.844C393.398 253.154 393.701 257.567 393.849 262.084C393.974 263.748 394.164 269.267 394.419 278.642L394.53 282.534L394.594 285.045L394.707 291.96C394.666 292.301 394.661 292.596 394.693 292.844C394.796 292.999 394.863 293.2 394.895 293.448C395.112 293.841 395.195 294.166 395.143 294.425L395.377 295.277Z" fill="white"/>
<path d="M428.558 204.807C429.674 203.659 430.96 202.867 432.417 202.432L432.789 202.385C434.112 202.219 435.053 202.688 435.612 203.794C436.223 204.641 436.709 205.84 437.072 207.39C437.341 208.196 437.497 208.764 437.539 209.095C439.205 213.001 440.686 216.426 441.98 219.371C443.346 222.223 444.49 224.641 445.412 226.625C446.354 228.774 447.813 232.034 449.791 236.405C451.758 240.693 453.456 244.511 454.884 247.859C455.35 248.892 455.645 249.569 455.77 249.89C455.479 247.574 454.959 244.112 454.212 239.503L453.433 234.309L452.903 231.1C452.395 227.721 451.876 224.93 451.347 222.729C450.901 220.517 450.253 218.373 449.404 216.296C449.134 214.146 449.226 212.203 449.679 210.466L450.762 207.055C451.453 205.204 452.599 203.296 454.2 201.331C455.378 200.007 456.736 199.122 458.276 198.677C459.681 198.5 460.834 198.985 461.734 200.132C463.38 203.201 464.525 206.626 465.168 210.409C465.459 212.724 465.714 214.414 465.931 215.478C466.472 219.778 466.914 222.956 467.256 225.012C467.828 229.56 468.592 236.309 469.55 245.259C470.121 249.807 470.72 256.577 471.347 265.569L471.55 268.189C471.582 269.109 471.656 270.695 471.771 272.949C471.969 275.191 472.053 277.197 472.023 278.964C471.976 284.597 471.617 289.094 470.948 292.454C470.34 294.966 469.747 296.93 469.169 298.347C468.539 300.022 467.347 301.893 465.591 303.962C464.342 305.379 463.055 306.17 461.732 306.337C461.236 306.399 460.725 306.337 460.197 306.152C458.791 305.657 457.457 304.061 456.194 301.364C455.159 299.142 454.071 296.507 452.932 293.459C452.145 291.206 451.596 289.511 451.285 288.375C449.794 283.859 448.737 280.8 448.116 279.198C446.624 274.682 444.232 268.012 440.939 259.187C440.331 276.397 437.871 290.901 433.558 302.698C433.135 304.011 432.454 305.272 431.514 306.482C430.657 307.682 429.723 308.597 428.71 309.228C428.173 309.632 427.532 309.88 426.788 309.974C426.127 310.057 425.62 310.037 425.269 309.913C424.1 309.304 423.402 308.09 423.173 306.271C423.079 305.527 423.053 304.984 423.094 304.643C423.248 302.524 423.681 300.622 424.393 298.937L424.578 298.409C425.64 294.832 426.496 290.945 427.144 286.748C427.77 281.042 428.086 275.207 428.093 269.243C428.099 263.279 427.918 256.499 427.551 248.902C427.197 244.747 426.9 241.719 426.661 239.817L425.726 233.383C425.539 231.895 425.352 230.743 425.165 229.926C425.093 229.347 424.963 228.65 424.776 227.833C424.662 226.924 424.573 225.885 424.51 224.717C424.157 221.906 423.923 219.71 423.808 218.128C423.766 216.454 423.94 214.836 424.332 213.275C425.228 209.719 426.637 206.896 428.558 204.807Z" fill="white"/>
<path d="M164.372 138.414C165.295 135.073 165.583 132.013 165.233 129.235C164.152 120.636 157.063 117.16 143.966 118.806C137.881 119.571 131.383 121.329 124.472 124.079C117.677 126.681 112.361 129.297 108.527 131.93C101.832 136.4 96.9809 140.571 93.9737 144.443C91.0822 148.166 89.9529 153.078 90.5856 159.18C91.6176 168.457 92.3759 176.627 92.8605 183.688C93.3285 190.617 93.4574 197.522 93.2473 204.402C108.506 196.436 122.375 187.033 134.853 176.191C143.101 169.107 149.695 162.768 154.636 157.175C159.56 151.45 162.805 145.196 164.372 138.414ZM86.1312 104.509C86.3806 106.493 86.6558 109.751 86.9567 114.282C87.0248 116.961 87.1586 119.095 87.3582 120.682L94.4939 108.497C98.4747 101.681 101.506 96.3945 103.587 92.6389C105.651 88.751 107.484 84.6235 109.085 80.2563C104.588 81.8968 100.637 83.603 97.2311 85.375C93.8089 87.0147 90.7673 89.0097 88.1064 91.3599C86.6686 92.7502 85.6688 93.8837 85.1071 94.7606C84.6778 95.6209 84.5213 96.5141 84.6377 97.4401C84.7375 98.2339 84.9367 99.2839 85.2353 100.59C85.6662 101.88 85.9648 103.186 86.1312 104.509ZM160.666 89.696C167.959 89.9885 173.534 92.1096 177.39 96.0595C181.378 99.9927 183.78 105.2 184.595 111.683C185.194 116.445 184.9 122.126 183.714 128.726C180.6 145.646 170.864 163.332 154.504 181.784C141.631 195.9 126.963 208.562 110.499 219.77C105.193 223.528 99.0933 227.385 92.1997 231.343C85.3062 235.3 79.2798 237.603 74.1204 238.252C70.1516 238.751 67.3561 237.893 65.7338 235.678C65.0882 234.818 64.6906 233.793 64.5409 232.603C64.3413 231.015 64.5552 229.51 65.1826 228.087C65.7935 226.532 66.8008 224.39 68.2045 221.66C69.8563 218.765 70.8636 216.623 71.2264 215.233C71.9846 211.644 71.9812 206.806 71.2161 200.721L70.6173 195.958C70.4843 194.9 70.2602 193.652 69.9449 192.213C69.762 190.758 69.6285 189.162 69.5446 187.426C68.8067 173.005 68.1871 162.198 67.6859 155.004C67.453 153.152 67.3195 151.556 67.2855 150.217C67.2349 148.745 67.2092 147.472 67.2084 146.397C67.1744 145.057 67.0988 143.387 66.9816 141.386C66.8644 139.385 66.6395 137.061 66.3069 134.416C65.9576 131.637 65.4265 129.016 64.7136 126.553C63.752 123.18 62.6339 120.7 61.3594 119.113C61.1772 118.733 60.4243 118.088 59.1006 117.18C57.8925 116.122 57.1891 115.337 56.9903 114.825C56.7915 114.312 56.6339 113.593 56.5175 112.667C55.9686 108.301 57.7088 101.834 61.7379 93.264C62.9104 90.8321 64.1245 88.7309 65.3801 86.9605C66.6357 85.19 68.0818 83.8659 69.7185 82.9883C70.2144 82.6572 71.0576 82.4167 72.2483 82.2671C72.6451 82.2172 73.1743 82.1506 73.8358 82.0675C74.6295 81.9677 75.2165 81.8267 75.5968 81.6445C76.9854 80.9324 78.3159 79.7572 79.5882 78.1191C80.9927 76.4643 81.8107 75.488 82.042 75.1901C83.3142 73.552 84.5536 72.1867 85.7601 71.0943C89.6109 67.5194 94.768 63.6459 101.231 59.4737C107.695 55.3015 113.374 52.9078 118.269 52.2924C123.031 51.6936 126.315 53.2293 128.12 56.8995C128.832 58.2882 129.297 59.8424 129.513 61.5622C130.145 66.5893 129.115 72.2956 126.424 78.6812C123.716 84.9345 120.042 92.0484 115.4 100.023C114.756 101.313 113.666 103.332 112.13 106.078C125.503 97.0059 138.539 91.6714 151.239 90.0748C154.679 89.6423 157.821 89.5161 160.666 89.696Z" fill="white"/>
<path d="M264.192 40.8002C267.664 39.5574 270.922 38.7447 273.964 38.3622C285.474 36.9152 294.696 40.7951 301.632 50.0018C308.552 59.0762 313.001 71.4848 314.98 87.2276C317.042 103.632 316.261 120.931 312.635 139.125C309.126 157.171 303.067 172.58 294.46 185.354C285.985 198.11 275.662 205.254 263.491 206.784C257.803 207.499 252.08 206.875 246.324 204.911C239.293 202.435 233.625 197.436 229.32 189.915C225.147 182.376 222.362 173.051 220.965 161.938C219.069 146.857 219.703 130.517 222.865 112.919C226.144 95.171 231.441 79.5885 238.758 66.171C246.075 52.7535 254.553 44.2966 264.192 40.8002ZM264.662 73.3962C257.799 74.3934 251.964 78.7553 247.157 86.4819C242.466 94.0596 239.124 103.282 237.13 114.149C235.253 124.867 234.937 135.187 236.185 145.109C237.449 155.163 240.266 163.14 244.636 169.041C248.99 174.81 254.738 177.245 261.882 176.347C264.792 175.981 267.645 175.152 270.439 173.86C276.275 171.111 281.332 165.906 285.609 158.246C290.02 150.569 293.156 141.843 295.018 132.068C296.863 122.16 297.228 112.775 296.114 103.911C294.817 93.5925 291.528 85.607 286.248 79.9547C281.085 74.1536 273.889 71.9674 264.662 73.3962Z" fill="white"/>
<path d="M384.792 87.9247C384.776 88.8674 384.876 90.1986 385.093 91.9184C385.342 93.9028 385.815 96.5981 386.512 100.004C387.243 103.675 387.724 106.437 387.957 108.289C388.8 107.511 390.461 106.294 392.941 104.639C398.131 101.03 402.147 97.7029 404.99 94.6578C407.832 91.6128 409.045 88.4367 408.63 85.1294C408.546 84.4679 408.414 83.9471 408.231 83.5668C407.336 80.7229 405.623 78.3179 403.091 76.3517C400.56 74.3854 398.169 73.0062 395.919 72.214C393.653 71.2895 389.914 69.8781 384.703 67.98C384.592 74.5787 384.622 81.2269 384.792 87.9247ZM441.912 107.755C442.937 107.357 443.648 107.133 444.045 107.083C447.617 106.634 449.893 110.312 450.874 118.117C451.39 122.218 451.55 126.163 451.354 129.95C451.291 133.721 451.284 135.805 451.334 136.201C451.256 143.065 450.748 149.176 449.809 154.535C448.87 159.894 447.087 164.956 444.461 169.72C440.943 175.941 437.133 179.309 433.032 179.825C429.593 180.257 425.317 178.846 420.204 175.592L398.736 161.964L388.859 155.546C388.563 158.539 387.599 162.625 385.965 167.802C384.447 172.831 382.408 177.455 379.848 181.674C377.271 185.76 374.328 188.012 371.021 188.427C370.227 188.527 369.276 188.445 368.168 188.181C365.389 187.456 363.609 183.984 362.827 177.766C362.095 171.945 362.173 164.545 363.06 155.564L363.278 149.288C363.244 147.948 363.292 144.583 363.42 139.191C363.548 133.8 363.528 128.83 363.36 124.282C363.191 119.734 362.866 115.542 362.383 111.706C361.851 107.472 361.32 104.314 360.789 102.231C359.711 97.9314 358.857 94.8808 358.227 93.0786C355.84 84.7782 354.355 78.313 353.773 73.6827C353.091 68.2588 353.286 63.3965 354.358 59.0958C356.123 51.7517 359.319 46.1762 363.947 42.3691C368.69 38.4132 374.237 36.0361 380.587 35.2377C388.128 34.2897 395.984 35.3177 404.156 38.3218C412.311 41.1937 418.855 45.1416 423.786 50.1656C428.089 54.4624 430.632 59.7197 431.413 65.9374C432.228 72.4197 431.076 79.2838 427.955 86.5297C424.967 93.7589 420.862 100.658 415.641 107.227C410.552 113.78 405.131 119.299 399.379 123.785C405.021 126.973 410.481 130.318 415.759 133.82C421.881 137.62 426.464 140.403 429.508 142.171C427.263 124.311 431.397 112.839 441.912 107.755Z" fill="white"/>
<path d="M505.198 10.299C506.983 8.46205 509.041 7.19543 511.372 6.49918L511.967 6.42433C514.084 6.15822 515.59 6.90963 516.484 8.67856C517.461 10.034 518.239 11.9518 518.82 14.4321C519.251 15.7218 519.499 16.6312 519.566 17.1604C522.233 23.4098 524.602 28.8905 526.672 33.6023C528.859 38.1652 530.689 42.0338 532.163 45.2081C533.67 48.6469 536.006 53.863 539.17 60.8563C542.317 67.7173 545.033 73.8261 547.319 79.1828C548.065 80.8361 548.537 81.919 548.736 82.4315C548.27 78.7274 547.439 73.1877 546.243 65.8127L544.997 57.5032L544.15 52.3688C543.336 46.9614 542.506 42.4968 541.66 38.9748C540.946 35.4362 539.91 32.0053 538.551 28.6821C538.119 25.2425 538.266 22.1333 538.991 19.3544L540.724 13.8956C541.83 10.9345 543.663 7.88198 546.225 4.73794C548.108 2.61974 550.282 1.2042 552.746 0.491325C554.995 0.208582 556.839 0.984555 558.279 2.81925C560.912 7.72915 562.744 13.2102 563.773 19.2623C564.239 22.9665 564.646 25.6702 564.995 27.3734C565.86 34.2525 566.566 39.3375 567.114 42.6281C568.029 49.9042 569.252 60.7026 570.784 75.0234C571.699 82.2995 572.657 93.1311 573.66 107.518L573.985 111.711C574.036 113.182 574.153 115.721 574.338 119.326C574.655 122.915 574.789 126.123 574.742 128.951C574.665 137.964 574.092 145.159 573.02 150.534C572.048 154.554 571.099 157.696 570.174 159.963C569.167 162.643 567.259 165.637 564.45 168.947C562.451 171.214 560.393 172.481 558.276 172.747C557.482 172.847 556.664 172.748 555.82 172.451C553.57 171.659 551.435 169.105 549.414 164.79C547.758 161.236 546.019 157.02 544.196 152.142C542.936 148.538 542.058 145.826 541.561 144.007C539.174 136.782 537.484 131.888 536.49 129.325C534.103 122.1 530.275 111.427 525.006 97.3078C524.033 124.844 520.097 148.05 513.198 166.924C512.521 169.025 511.431 171.044 509.927 172.98C508.556 174.899 507.061 176.364 505.441 177.374C504.581 178.019 503.556 178.417 502.365 178.567C501.307 178.7 500.497 178.667 499.934 178.469C498.065 177.495 496.947 175.552 496.581 172.642C496.431 171.451 496.39 170.583 496.455 170.037C496.701 166.647 497.393 163.603 498.533 160.907L498.83 160.063C500.529 154.34 501.897 148.121 502.934 141.405C503.937 132.276 504.443 122.94 504.452 113.397C504.462 103.855 504.173 93.0061 503.586 80.8512C503.019 74.2033 502.544 69.358 502.162 66.3153L500.666 56.0215C500.367 53.6402 500.067 51.7964 499.769 50.4902C499.652 49.5641 499.445 48.4479 499.146 47.1417C498.963 45.6864 498.822 44.0245 498.721 42.1558C498.156 37.6578 497.781 34.1438 497.597 31.6136C497.529 28.9345 497.809 26.3461 498.435 23.8484C499.87 18.1583 502.124 13.6419 505.198 10.299Z" fill="white"/>
<path d="M694.574 182.9C696.413 182.196 698.332 181.897 700.329 182.002C705.122 182.254 708.765 185.35 711.256 191.289C713.947 197.239 715.113 203.609 714.755 210.4C714.566 213.995 713.904 217.064 712.768 219.608C709.362 227.239 704.096 234.072 696.969 240.105C689.841 246.139 681.311 252.199 671.377 258.285C661.664 263.982 650.28 269.09 637.224 273.61C624.378 277.94 612.563 279.821 601.778 279.253C585.6 278.401 575.152 271.442 570.433 258.376C567.616 251.018 566.497 241.846 567.075 230.861C567.801 217.081 570.745 203.016 575.906 188.667C581.278 174.13 588.39 156.98 597.242 137.218C606.072 117.856 616.348 99.571 628.069 82.3636C639.801 64.9565 652.158 56.5948 665.14 57.2785C668.535 57.4573 671.594 58.3194 674.316 59.8647C677.313 44.8014 682.995 33.8852 691.362 27.1158C696.576 23.1846 700.981 21.3137 704.576 21.503C708.77 21.7239 711.834 24.3887 713.768 29.4975C714.977 33.1661 715.434 37.7966 715.139 43.3888C714.992 46.1849 714.592 49.9692 713.941 54.7415L713.168 63.7133C712 78.272 710.334 92.8045 708.168 107.311C706.275 120.429 702.717 132.859 697.492 144.601C692.267 156.342 684.636 162.449 674.597 162.922C669.572 163.258 665.615 160.446 662.724 154.486C660.033 148.536 657.285 139.88 654.478 128.516C652.66 121.211 651.047 115.718 649.638 112.039C648.44 108.171 646.989 105.29 645.287 103.398C632.84 122.971 623.289 144.598 616.635 168.281L614.821 174.194C612.845 181.3 611.231 187.223 609.98 191.964C608.939 196.516 608.298 201.088 608.056 205.682C607.519 215.868 609.748 222.995 614.741 227.063C618.178 230.248 623.192 232.014 629.783 232.361C634.177 232.593 639.007 232.146 644.273 231.022C649.529 230.097 655.122 228.489 661.05 226.197C662.89 225.493 665.66 224.237 669.36 222.429C670.968 222.313 671.799 221.756 671.851 220.758C671.893 219.959 671.436 219.134 670.48 218.282C670.974 216.506 671.505 214.03 672.072 210.856C672.63 207.881 673.26 205.411 673.965 203.445C674.669 201.479 675.778 199.435 677.292 197.311C682.884 189.995 688.645 185.192 694.574 182.9Z" fill="white"/>
<path d="M914.015 140.983C917.011 141.141 919.349 142.365 921.031 144.657C922.913 146.959 923.748 150.107 923.538 154.102C923.433 156.099 922.897 158.675 921.929 161.828C920.678 166.569 918.544 170.963 915.527 175.01C912.521 178.857 909.057 181.879 905.136 184.076C902.666 185.348 900.217 186.22 897.788 186.693C895.371 186.966 892.354 187.208 888.738 187.418L886.625 187.607L885.726 187.56L885.426 210.375C887.045 210.06 888.154 209.918 888.753 209.95C889.751 210.002 890.839 210.26 892.017 210.723C895.38 211.501 897.682 213.424 898.923 216.494C900.005 218.754 900.463 221.482 900.294 224.677C900.2 226.475 899.879 228.761 899.332 231.536C899.101 232.125 898.959 232.918 898.906 233.917C897.729 241.065 895.989 247.482 893.687 253.169C891.584 258.866 888.504 264.112 884.446 268.905C875.09 279.227 866.418 284.178 858.429 283.757C857.031 283.684 855.938 283.526 855.15 283.284C850.609 282.044 847.539 279.479 845.941 275.589C844.543 271.71 843.671 267.358 843.324 262.533C842.368 250.266 842.295 236.443 843.105 221.065L844.651 197.413L844.777 195.016L845.329 190.239L833.535 191.721C827.47 192.803 821.998 194.017 817.121 195.362L814.661 196.435C811.433 212.086 809.299 224.091 808.258 232.448C807.69 235.622 807.238 240.405 806.902 246.796C807.059 247.606 807.086 249.009 806.98 251.006C806.886 252.804 806.712 254.196 806.46 255.185C806.26 258.979 804.972 262.516 802.596 265.796C800.431 268.886 797.609 271.141 794.129 272.56C791.469 273.622 788.642 274.074 785.646 273.916C780.253 273.632 775.755 271.592 772.149 267.798C767.976 263.372 766.074 257.664 766.442 250.674L766.978 246.196C768.124 235.842 769.764 225.614 771.898 215.512C774.243 205.221 777.292 192.964 781.045 178.742C784.115 166.086 786.317 156.589 787.652 150.25C791.343 133.421 794.155 118.048 796.09 104.13C797.351 95.3844 798.277 87.3219 798.866 79.9427L798.929 78.7443C799.349 74.5607 799.933 71.0865 800.679 68.322C801.625 65.5679 803.36 63.0557 805.883 60.7852C809.457 57.5687 813.74 56.0919 818.734 56.3549C823.926 56.6284 828.131 58.5522 831.348 62.1263C834.564 65.7004 836.009 70.5831 835.683 76.7746C835.515 79.9701 835.294 82.2617 835.021 83.6492L834.642 85.1314L831.677 107.206C830.457 118.958 828.907 129.391 827.025 138.505C826.415 142.478 825.343 147.629 823.808 153.957C826.656 153.105 831.423 151.955 838.109 150.504L839.938 150C842.965 149.558 845.599 148.996 847.838 148.313C848.584 134.132 849.042 123.542 849.21 116.541L849.242 115.942C850.178 98.1665 851.077 84.8954 851.94 76.1286C853.254 62.579 858.883 52.6613 868.828 46.3756C872.349 44.1577 875.907 43.1434 879.502 43.3328C882.698 43.5011 885.336 44.7415 887.418 47.0542C889.657 50.1763 890.65 54.134 890.397 58.9273C890.292 60.9246 889.956 63.5104 889.388 66.685C889.146 67.4734 888.989 68.5666 888.915 69.9646C888.599 72.1511 888.316 75.641 888.063 80.4343C887.874 84.0293 887.779 89.6321 887.779 97.2426L887.637 105.647L887.289 117.946L886.863 143.158L910.089 141.377L912.201 141.188L914.015 140.983Z" fill="white"/>
<path d="M1045.81 184.574C1048.94 185.941 1052.45 187.828 1056.32 190.235C1051.47 168.35 1047.84 149.733 1045.45 134.386C1036.84 149.554 1025.55 167.986 1011.59 189.682C1010.48 191.826 1008.62 194.833 1006.01 198.701C1014.65 186.739 1024.06 181.026 1034.25 181.562C1038.24 181.773 1042.1 182.777 1045.81 184.574ZM1095.98 144.558C1102.71 172.75 1111.03 199.125 1120.96 223.681L1123.9 230.445C1126.45 235.386 1128.33 239.59 1129.55 243.059C1130.78 246.329 1131.3 249.661 1131.12 253.056C1130.85 258.249 1128.37 263.526 1123.68 268.887C1119 274.048 1114 277.79 1108.67 280.113C1105.38 281.742 1101.94 282.462 1098.34 282.272C1092.35 281.957 1086.45 279.844 1080.65 275.933C1075.06 271.834 1068.35 266.073 1060.53 258.651C1054.99 253.553 1050.78 249.926 1047.89 247.771C1045.96 246.268 1041.89 243.85 1035.65 240.518C1024.76 234.336 1016.34 228.886 1010.38 224.166C1004.62 219.456 1001.89 214.106 1002.21 208.114C1002.29 206.516 1003.12 204.156 1004.69 201.035C1000.53 207.625 994.693 217.732 987.166 231.355C977.884 247.89 972.591 257.124 971.287 259.058C968.659 263.326 964.507 268.014 958.831 273.123C953.165 278.032 948.035 280.365 943.441 280.123C941.044 279.997 938.995 278.988 937.292 277.095C935.967 275.624 935.384 273.39 935.542 270.394C935.984 262.006 943.158 247.463 957.066 226.766C957.949 225.21 959.368 222.982 961.323 220.08L968.577 207.845C983.505 182.996 994.406 164.243 1001.28 151.587C1005.28 144.187 1011.07 133.076 1018.66 118.255L1030.72 94.5564C1035.61 85.4008 1040.41 77.843 1045.13 71.883C1049.86 65.7232 1055.61 61.1193 1062.38 58.0711C1065.87 56.4524 1069.12 55.7219 1072.11 55.8797C1076.11 56.09 1078.9 58.1399 1080.5 62.0293C1082.11 65.719 1083.42 71.1957 1084.44 78.4593C1086.95 99.2202 1090.8 121.253 1095.98 144.558Z" fill="white"/>
<path d="M1280.95 59.0669C1286.4 58.1526 1291.43 57.8164 1296.02 58.0583C1313.4 58.9734 1325.98 67.1467 1333.78 82.5782C1341.59 97.81 1344.87 117.309 1343.62 141.076C1342.32 165.842 1336.58 191.175 1326.4 217.076C1316.43 242.787 1303.4 263.931 1287.31 280.508C1271.42 297.095 1254.28 304.905 1235.91 303.937C1227.32 303.485 1219.04 301.046 1211.06 296.62C1201.33 291.101 1194.29 282.218 1189.93 269.972C1185.77 257.736 1184.13 243.23 1185.01 226.453C1186.21 203.685 1191.48 179.729 1200.81 154.585C1210.36 129.252 1222.31 107.65 1236.67 89.7809C1251.03 71.9113 1265.79 61.6733 1280.95 59.0669ZM1273 107.316C1262.6 106.968 1252.83 111.861 1243.69 121.994C1234.75 131.938 1227.37 144.668 1221.55 160.183C1215.93 175.509 1212.73 190.662 1211.94 205.641C1211.14 220.82 1213.19 233.345 1218.08 243.215C1222.97 252.886 1230.82 258.006 1241.6 258.574C1245.99 258.805 1250.42 258.337 1254.89 257.171C1264.24 254.659 1273.08 248.315 1281.43 238.14C1289.98 227.976 1296.92 215.924 1302.26 201.986C1307.61 187.847 1310.64 174.088 1311.34 160.706C1312.16 145.128 1309.43 132.466 1303.13 122.722C1297.04 112.788 1287 107.652 1273 107.316Z" fill="white"/>
</g>
</g>
<defs>
<clipPath id="clip0_1_4">
<rect width="1370" height="571" fill="white"/>
</clipPath>
</defs>
</svg>
